<svg width="640" height="340" viewBox="0 0 640 340" fill="none" xmlns="http://www.w3.org/2000/svg">
  <rect width="640" height="340" fill="white"/>
  <path d="M304 34L326 83L379 88L339 123L351 176L304 148L258 176L270 123L230 88L283 83L304 34Z" stroke="#263B82" stroke-width="14" stroke-linejoin="round"/>
  <path d="M139 188L187 188L210 263L237 188L276 188L228 304L191 304L165 224L138 304L101 304L56 188L101 188L120 260L139 188Z" fill="#263B82"/>
  <path d="M168 188L205 188L226 264L353 84L389 64L233 304L194 304L168 188Z" fill="#D20A3A"/>
  <path d="M277 188H326V304H277V188ZM301 174C294 174 288 172 284 168C279 164 277 159 277 153C277 147 279 142 284 138C288 134 294 132 301 132C308 132 314 134 318 138C323 142 325 147 325 153C325 159 323 164 318 168C314 172 308 174 301 174Z" fill="#263B82"/>
  <path d="M349 188H393V203C402 191 416 185 434 185C448 185 459 189 468 198C476 207 480 220 480 237V304H432V244C432 237 430 232 427 228C423 224 418 222 411 222C403 222 397 225 393 230V304H349V188Z" fill="#263B82"/>
  <path d="M504 188H548V202C557 191 570 185 587 185C604 185 617 191 626 202C635 191 649 185 666 185C682 185 695 190 704 199C713 208 717 221 717 238V304H669V244C669 237 668 232 665 228C662 224 657 222 651 222C644 222 638 225 635 230C635 233 636 236 636 239V304H588V244C588 237 586 232 583 228C580 224 575 222 569 222C562 222 556 225 552 230V304H504V188Z" fill="#D20A3A" transform="translate(-16 0)"/>
  <text x="88" y="328" fill="#263B82" font-family="Arial, sans-serif" font-size="34" font-weight="700" letter-spacing="31">FASHION</text>
</svg>
